<!DOCTYPE svg PUBLIC "-//W3C//DTD SVG 1.1//EN" "http://www.w3.org/Graphics/SVG/1.1/DTD/svg11.dtd">
<!-- Uploaded to: SVG Repo, www.svgrepo.com, Transformed by: SVG Repo Mixer Tools -->
<svg fill="#ffffff" width="64px" height="64px" viewBox="-5 -3 24 24" xmlns="http://www.w3.org/2000/svg" preserveAspectRatio="xMinYMin" class="jam jam-log-out" stroke="#ffffff">
<g id="SVGRepo_bgCarrier" stroke-width="0"/>
<g id="SVGRepo_tracerCarrier" stroke-linecap="round" stroke-linejoin="round"/>
<g id="SVGRepo_iconCarrier">
<path d="M3.414 7.828h5.642a1 1 0 1 1 0 2H3.414l1.122 1.122a1 1 0 1 1-1.415 1.414L.293 9.536a.997.997 0 0 1 0-1.415L3.12 5.293a1 1 0 0 1 1.415 1.414L3.414 7.828zM13 0a1 1 0 0 1 1 1v16a1 1 0 0 1-2 0V1a1 1 0 0 1 1-1z"/>
</g>
</svg>