<?xml version="1.0" standalone="no"?>
<!DOCTYPE svg PUBLIC "-//W3C//DTD SVG 20010904//EN"
 "http://www.w3.org/TR/2001/REC-SVG-20010904/DTD/svg10.dtd">
<svg version="1.0" xmlns="http://www.w3.org/2000/svg"
 width="645.000000pt" height="648.000000pt" viewBox="0 0 645.000000 648.000000"
 preserveAspectRatio="xMidYMid meet">

<g transform="translate(0.000000,648.000000) scale(0.100000,-0.100000)"
fill="#000000" stroke="none">
<path d="M553 6215 c-168 -36 -285 -162 -312 -335 -14 -83 -14 -525 -1 -610
29 -181 158 -310 340 -339 36 -6 173 -11 305 -11 132 0 269 5 305 11 182 29
311 158 340 339 13 84 13 526 0 610 -29 181 -158 310 -340 339 -96 16 -560 13
-637 -4z m672 -188 c55 -25 92 -62 112 -116 16 -40 18 -83 18 -336 0 -316 -3
-340 -57 -400 -56 -65 -88 -70 -413 -70 -325 0 -357 5 -413 70 -54 61 -57 83
-57 405 0 290 0 296 24 343 12 26 39 59 58 74 62 47 103 53 408 50 245 -2 285
-4 320 -20z"/>
<path d="M704 5860 c-45 -14 -91 -63 -104 -111 -7 -26 -10 -103 -8 -198 3
-140 5 -160 25 -191 43 -69 66 -75 268 -75 202 0 225 6 268 75 20 33 22 47 22
215 0 168 -2 182 -22 215 -41 67 -68 75 -253 77 -91 1 -179 -2 -196 -7z"/>
<path d="M1879 6201 c-20 -20 -29 -39 -29 -61 0 -43 47 -90 90 -90 43 0 90 47
90 90 0 43 -47 90 -90 90 -22 0 -41 -9 -61 -29z"/>
<path d="M2239 6201 c-23 -23 -29 -38 -29 -71 0 -66 -13 -80 -70 -80 -68 0
-105 -31 -105 -90 0 -59 37 -90 105 -90 57 0 70 -14 70 -80 0 -33 6 -48 29
-71 25 -24 37 -29 80 -29 59 0 71 -14 71 -80 0 -53 42 -100 90 -100 22 0 41 9
61 29 29 29 29 30 29 151 0 121 0 122 -29 151 -24 23 -38 29 -75 29 -72 0 -76
10 -76 166 l0 136 -29 29 c-20 20 -39 29 -61 29 -22 0 -41 -9 -61 -29z"/>
<path d="M2599 6201 c-40 -40 -39 -82 1 -123 27 -26 36 -30 68 -25 46 8 82 47
82 88 0 42 -48 89 -90 89 -22 0 -41 -9 -61 -29z"/>
<path d="M2959 6201 c-20 -20 -29 -39 -29 -61 0 -43 47 -90 90 -90 43 0 90 47
90 90 0 43 -47 90 -90 90 -22 0 -41 -9 -61 -29z"/>
<path d="M3319 6201 c-20 -20 -29 -39 -29 -61 0 -22 9 -41 29 -61 25 -24 37
-29 80 -29 59 0 71 -14 71 -80 0 -33 6 -48 29 -71 25 -24 37 -29 80 -29 59 0
71 -14 71 -80 0 -33 6 -48 29 -71 25 -24 37 -29 80 -29 59 0 71 -14 71 -80 0
-53 42 -100 90 -100 48 0 90 47 90 100 0 66 12 80 71 80 43 0 55 5 80 29 20
20 29 39 29 61 0 22 -9 41 -29 61 -25 24 -37 29 -80 29 -59 0 -71 14 -71 80 0
33 -6 48 -29 71 l-29 29 -139 0 c-95 0 -143 4 -151 12 -7 7 -12 34 -12 61 0
40 -5 53 -29 78 -29 29 -30 29 -151 29 -121 0 -122 0 -151 -29z"/>
<path d="M4039 6201 c-20 -20 -29 -39 -29 -61 0 -22 9 -41 29 -61 l29 -29 212
0 212 0 29 29 c20 20 29 39 29 61 0 22 -9 41 -29 61 l-29 29 -212 0 -212 0
-29 -29z"/>
<path d="M5200 6219 c-165 -28 -290 -149 -325 -316 -18 -82 -21 -531 -5 -633
29 -181 158 -310 340 -339 84 -14 526 -14 610 0 182 29 311 158 340 339 13 85
13 527 -1 610 -28 175 -145 299 -316 335 -78 17 -549 19 -643 4z m609 -180
c67 -14 123 -57 152 -116 24 -47 24 -52 24 -343 0 -322 -3 -344 -57 -405 -56
-65 -88 -70 -413 -70 -319 0 -353 5 -408 63 -57 60 -62 83 -65 374 -2 173 1
287 8 322 19 94 69 148 157 172 61 16 529 19 602 3z"/>
<path d="M5333 5859 c-44 -13 -91 -63 -104 -111 -6 -25 -9 -103 -7 -197 3
-140 5 -160 25 -191 43 -69 66 -75 268 -75 202 0 225 6 268 75 21 33 22 47 22
216 0 175 -1 182 -25 216 -45 67 -65 73 -250 75 -91 1 -179 -2 -197 -8z"/>
<path d="M1699 6021 c-20 -20 -29 -39 -29 -61 0 -43 47 -90 90 -90 43 0 90 47
90 90 0 43 -47 90 -90 90 -22 0 -41 -9 -61 -29z"/>
<path d="M3139 6021 l-29 -29 0 -132 c0 -72 -5 -140 -10 -151 -9 -16 -22 -19
-78 -19 -40 0 -73 5 -80 12 -7 7 -12 34 -12 61 0 40 -5 53 -29 78 -20 20 -39
29 -61 29 -22 0 -41 -9 -61 -29 l-29 -29 0 -211 c0 -205 1 -211 23 -237 18
-21 35 -28 78 -32 30 -2 60 -9 67 -14 6 -6 12 -32 12 -60 0 -41 5 -54 29 -79
25 -24 38 -29 78 -29 27 0 54 -5 61 -12 15 -15 17 -301 2 -329 -9 -16 -22 -19
-75 -19 -93 0 -95 3 -95 166 l0 136 -29 29 c-20 20 -39 29 -61 29 -22 0 -41
-9 -61 -29 l-29 -29 0 -302 0 -302 30 -30 c27 -26 36 -30 68 -25 50 8 82 46
82 98 0 79 1 79 175 79 177 0 185 -3 185 -76 0 -37 6 -51 29 -75 l29 -29 211
0 c207 0 210 0 238 24 39 34 39 98 0 132 -27 23 -35 24 -167 24 -158 0 -160 1
-160 80 0 33 -6 48 -29 71 -25 24 -37 29 -80 29 -39 0 -53 4 -61 19 -15 28
-13 314 2 329 7 7 40 12 78 12 38 0 71 -5 78 -12 7 -7 12 -33 12 -59 0 -67 32
-104 90 -104 58 0 90 37 90 104 0 26 5 52 12 59 7 7 33 12 59 12 67 0 104 32
104 90 0 34 -6 47 -28 66 l-28 24 -314 0 c-362 0 -345 -5 -345 90 0 73 15 90
76 90 37 0 51 6 75 29 l29 29 0 212 0 212 -29 29 c-20 20 -39 29 -61 29 -22 0
-41 -9 -61 -29z"/>
<path d="M1879 5841 c-20 -20 -29 -39 -29 -61 0 -43 47 -90 90 -90 43 0 90 47
90 90 0 43 -47 90 -90 90 -22 0 -41 -9 -61 -29z"/>
<path d="M4424 5860 c-34 -14 -54 -50 -54 -100 0 -58 -12 -70 -73 -70 -40 0
-53 -5 -78 -29 l-29 -29 0 -392 0 -392 29 -29 c25 -24 38 -29 78 -29 27 0 54
-5 61 -12 15 -15 16 -122 2 -149 -10 -17 -23 -19 -150 -19 -132 0 -140 -1
-167 -24 -22 -19 -28 -32 -28 -66 0 -58 37 -90 104 -90 26 0 52 -5 59 -12 16
-16 16 -140 0 -156 -7 -7 -34 -12 -61 -12 -40 0 -53 -5 -78 -29 l-29 -29 0
-302 0 -302 29 -29 c40 -39 82 -39 122 0 l29 29 0 229 c0 165 3 232 12 241 7
7 40 12 78 12 38 0 71 -5 78 -12 7 -7 12 -33 12 -59 0 -60 29 -97 82 -106 32
-5 41 -1 68 25 l30 30 0 226 c0 256 0 256 76 256 64 0 104 40 104 102 0 74 5
76 168 80 144 3 144 3 168 31 33 39 31 81 -5 118 l-29 29 -231 0 c-260 0 -251
-3 -251 80 0 33 -6 48 -29 71 -25 24 -38 29 -78 29 -27 0 -54 5 -61 12 -15 15
-17 301 -2 329 8 15 22 19 61 19 43 0 55 5 80 29 24 25 29 37 29 80 0 59 14
71 80 71 53 0 100 42 100 90 0 50 -47 90 -104 90 -58 0 -76 18 -76 76 0 37 -6
51 -29 75 -30 29 -58 35 -97 19z"/>
<path d="M1699 5661 c-29 -29 -29 -30 -29 -151 0 -121 0 -122 29 -151 24 -23
38 -29 75 -29 58 0 76 -18 76 -76 0 -57 40 -104 90 -104 22 0 41 9 61 29 24
25 29 38 29 78 0 27 5 54 12 61 8 8 56 12 151 12 l139 0 29 29 c39 40 39 82 0
122 l-29 29 -231 0 c-260 0 -251 -3 -251 80 0 53 -42 100 -90 100 -22 0 -41
-9 -61 -29z"/>
<path d="M3499 5661 c-20 -20 -29 -39 -29 -61 0 -43 47 -90 90 -90 43 0 90 47
90 90 0 43 -47 90 -90 90 -22 0 -41 -9 -61 -29z"/>
<path d="M2603 5306 c-22 -19 -28 -32 -28 -66 0 -82 88 -119 146 -61 20 20 29
39 29 61 0 22 -9 41 -29 61 -37 36 -79 38 -118 5z"/>
<path d="M4579 5301 c-29 -29 -29 -30 -29 -151 0 -121 0 -122 29 -151 20 -20
39 -29 61 -29 22 0 41 9 61 29 29 29 29 30 29 151 0 121 0 122 -29 151 -20 20
-39 29 -61 29 -22 0 -41 -9 -61 -29z"/>
<path d="M1699 5121 l-29 -29 0 -212 0 -212 29 -29 c20 -20 39 -29 61 -29 22
0 41 9 61 29 l29 29 0 212 0 212 -29 29 c-20 20 -39 29 -61 29 -22 0 -41 -9
-61 -29z"/>
<path d="M2059 5121 c-36 -37 -38 -79 -5 -118 34 -39 98 -39 132 0 33 39 31
81 -5 118 -20 20 -39 29 -61 29 -22 0 -41 -9 -61 -29z"/>
<path d="M2419 5121 c-20 -20 -29 -39 -29 -61 0 -43 47 -90 90 -90 43 0 90 47
90 90 0 43 -47 90 -90 90 -22 0 -41 -9 -61 -29z"/>
<path d="M3859 5121 c-20 -20 -29 -39 -29 -61 0 -43 47 -90 90 -90 22 0 41 9
61 29 20 20 29 39 29 61 0 22 -9 41 -29 61 -20 20 -39 29 -61 29 -22 0 -41 -9
-61 -29z"/>
<path d="M2239 4941 l-29 -29 0 -132 c0 -72 -5 -140 -10 -151 -10 -17 -23 -19
-151 -19 l-141 0 -29 -29 -29 -29 0 -212 0 -212 29 -29 c25 -24 38 -29 78 -29
27 0 54 -5 61 -12 7 -7 12 -34 12 -61 0 -40 5 -53 29 -78 25 -24 38 -29 78
-29 27 0 54 -5 61 -12 7 -7 12 -34 12 -61 0 -40 5 -53 29 -78 20 -20 39 -29
61 -29 22 0 41 9 61 29 29 29 29 30 29 151 0 121 0 122 -29 151 -24 23 -38 29
-75 29 -73 0 -76 8 -76 184 0 105 4 156 12 164 8 8 56 12 151 12 l139 0 29 29
c29 29 29 30 29 151 0 121 0 122 -29 151 -24 23 -38 29 -75 29 -58 0 -76 18
-76 76 0 57 -40 104 -90 104 -22 0 -41 -9 -61 -29z"/>
<path d="M439 4761 l-29 -29 0 -136 c0 -156 -4 -166 -76 -166 -57 0 -104 -40
-104 -90 0 -50 47 -90 104 -90 58 0 76 -18 76 -76 0 -57 40 -104 90 -104 50 0
90 47 90 104 0 72 10 76 166 76 l136 0 29 29 c39 40 39 82 0 122 l-29 29 -139
0 c-95 0 -143 4 -151 12 -8 8 -12 56 -12 151 l0 139 -29 29 c-20 20 -39 29
-61 29 -22 0 -41 -9 -61 -29z"/>
<path d="M799 4761 c-20 -20 -29 -39 -29 -61 0 -22 9 -41 29 -61 25 -24 37
-29 80 -29 59 0 71 -14 71 -80 0 -33 6 -48 29 -71 29 -29 30 -29 151 -29 121
0 122 0 151 29 24 25 29 38 29 78 0 27 5 54 12 61 7 7 34 12 61 12 40 0 53 5
78 29 39 40 39 82 0 122 l-29 29 -302 0 -302 0 -29 -29z"/>
<path d="M3859 4761 c-20 -20 -29 -39 -29 -61 0 -43 47 -90 90 -90 22 0 41 9
61 29 20 20 29 39 29 61 0 22 -9 41 -29 61 -20 20 -39 29 -61 29 -22 0 -41 -9
-61 -29z"/>
<path d="M5299 4761 l-29 -29 0 -212 0 -212 29 -29 29 -29 136 0 c156 0 166
-4 166 -76 0 -37 6 -51 29 -75 25 -24 38 -29 78 -29 27 0 54 -5 61 -12 7 -7
12 -34 12 -61 0 -40 5 -53 29 -78 29 -29 30 -29 151 -29 121 0 122 0 151 29
l29 29 0 212 0 212 -29 29 c-23 23 -38 29 -71 29 -79 0 -80 2 -80 161 l0 141
-29 29 c-20 20 -39 29 -61 29 -48 0 -90 -47 -90 -100 0 -71 -11 -80 -90 -80
-79 0 -90 9 -90 80 0 33 -6 48 -29 71 -29 29 -30 29 -151 29 -121 0 -122 0
-151 -29z"/>
<path d="M1519 4581 c-20 -20 -29 -39 -29 -61 0 -42 47 -90 89 -90 79 0 118
105 58 156 -39 33 -81 31 -118 -5z"/>
<path d="M1339 4401 c-36 -37 -38 -79 -5 -118 34 -39 98 -39 132 0 33 39 31
81 -5 118 -20 20 -39 29 -61 29 -22 0 -41 -9 -61 -29z"/>
<path d="M4939 4401 l-29 -29 0 -211 c0 -205 1 -211 23 -237 18 -21 35 -28 78
-32 30 -2 60 -9 67 -14 6 -6 12 -32 12 -60 0 -41 5 -54 29 -79 40 -39 82 -39
122 0 l29 29 0 212 0 212 -29 29 c-25 24 -38 29 -78 29 -27 0 -54 5 -61 12 -7
7 -12 34 -12 61 0 40 -5 53 -29 78 -20 20 -39 29 -61 29 -22 0 -41 -9 -61 -29z"/>
<path d="M979 4221 c-20 -20 -29 -39 -29 -61 0 -22 9 -41 29 -61 29 -29 30
-29 151 -29 121 0 122 0 151 29 20 20 29 39 29 61 0 22 -9 41 -29 61 -29 29
-30 29 -151 29 -121 0 -122 0 -151 -29z"/>
<path d="M2599 4221 c-20 -20 -29 -39 -29 -61 0 -22 9 -41 29 -61 29 -29 30
-29 151 -29 121 0 122 0 151 29 20 20 29 39 29 61 0 22 -9 41 -29 61 -29 29
-30 29 -151 29 -121 0 -122 0 -151 -29z"/>
<path d="M3499 4221 c-20 -20 -29 -39 -29 -61 0 -43 47 -90 90 -90 22 0 41 9
61 29 20 20 29 39 29 61 0 22 -9 41 -29 61 -20 20 -39 29 -61 29 -22 0 -41 -9
-61 -29z"/>
<path d="M619 4041 c-36 -37 -38 -79 -5 -118 24 -28 26 -28 150 -31 l126 -4
30 30 c40 41 40 83 1 123 -29 29 -30 29 -151 29 -121 0 -122 0 -151 -29z"/>
<path d="M1364 4060 c-30 -12 -54 -49 -54 -83 0 -40 49 -87 90 -87 42 0 90 47
90 89 0 59 -71 105 -126 81z"/>
<path d="M1699 4041 c-24 -25 -29 -38 -29 -78 0 -27 -5 -54 -12 -61 -7 -7 -34
-12 -61 -12 -40 0 -53 -5 -78 -29 -24 -25 -29 -38 -29 -78 0 -27 -5 -54 -12
-61 -8 -8 -56 -12 -151 -12 l-139 0 -29 -29 c-39 -40 -39 -82 0 -122 l29 -29
212 0 212 0 29 29 c23 24 29 38 29 75 0 61 17 76 90 76 73 0 90 -15 90 -76 0
-64 40 -104 104 -104 61 0 76 -17 76 -90 0 -95 17 -90 -346 -90 l-316 0 -29
-29 c-36 -37 -38 -79 -5 -118 l24 -28 324 -3 c363 -3 348 1 348 -78 0 -55 31
-92 82 -101 32 -5 41 -1 68 25 25 26 30 38 30 81 0 59 14 71 80 71 53 0 100
42 100 90 0 50 -47 90 -104 90 -71 0 -76 10 -76 165 0 125 -1 136 -23 161 -18
21 -35 28 -78 32 -30 2 -60 9 -66 14 -7 6 -13 32 -13 60 0 41 -5 54 -29 79
-25 24 -38 29 -78 29 -27 0 -54 5 -61 12 -7 7 -12 34 -12 61 0 40 -5 53 -29
78 -20 20 -39 29 -61 29 -22 0 -41 -9 -61 -29z"/>
<path d="M3055 3934 c-38 -8 -112 -36 -164 -61 -275 -132 -428 -447 -365 -751
55 -268 269 -481 536 -536 371 -76 736 165 812 536 32 156 13 295 -61 448 -39
79 -61 109 -130 177 -67 67 -99 90 -175 127 -151 73 -299 92 -453 60z m518
-395 c9 -12 13 -35 11 -57 -15 -145 -35 -355 -44 -451 -17 -193 -42 -204 -198
-80 -143 113 -143 119 -25 280 100 138 85 143 -83 29 -65 -44 -131 -82 -149
-86 -36 -6 -132 27 -210 73 -50 29 -66 56 -46 76 14 14 670 235 703 236 17 1
32 -7 41 -20z"/>
<path d="M979 3861 c-20 -20 -29 -39 -29 -61 0 -43 47 -90 90 -90 43 0 90 47
90 90 0 43 -47 90 -90 90 -22 0 -41 -9 -61 -29z"/>
<path d="M4579 3861 c-20 -20 -29 -39 -29 -61 0 -22 9 -41 29 -61 29 -29 30
-29 151 -29 121 0 122 0 151 29 20 20 29 39 29 61 0 22 -9 41 -29 61 -29 29
-30 29 -151 29 -121 0 -122 0 -151 -29z"/>
<path d="M5680 3878 c-42 -22 -50 -53 -50 -193 0 -88 -4 -135 -12 -143 -7 -7
-34 -12 -61 -12 -40 0 -53 -5 -78 -29 -23 -23 -29 -38 -29 -71 0 -71 -11 -80
-90 -80 -79 0 -90 9 -90 80 0 53 -42 100 -90 100 -22 0 -41 -9 -61 -29 -24
-25 -29 -38 -29 -78 0 -27 -5 -54 -12 -61 -7 -7 -40 -12 -78 -12 -38 0 -71 5
-78 12 -7 7 -12 34 -12 61 0 40 -5 53 -29 78 -29 29 -30 29 -151 29 -121 0
-122 0 -151 -29 -23 -23 -29 -38 -29 -71 0 -79 -2 -80 -161 -80 l-141 0 -29
-29 -29 -29 0 -132 c0 -72 -5 -140 -10 -151 -8 -15 -22 -19 -61 -19 -43 0 -55
-5 -80 -29 -39 -40 -39 -82 0 -122 24 -23 38 -29 75 -29 61 0 76 -17 76 -90 0
-73 -15 -90 -76 -90 -37 0 -51 -6 -76 -30 -26 -27 -30 -36 -25 -68 4 -22 17
-46 32 -59 26 -23 29 -23 326 -23 l301 0 29 29 c39 40 39 82 0 122 l-29 29
-136 0 c-161 0 -166 3 -166 90 0 73 15 90 76 90 37 0 51 6 75 29 39 40 39 82
0 122 -25 24 -38 29 -78 29 -27 0 -54 5 -61 12 -16 16 -16 140 0 156 8 8 59
12 164 12 176 0 184 -3 184 -76 0 -37 6 -51 30 -76 l30 -30 126 4 c124 3 126
3 150 31 17 20 24 40 24 68 0 70 11 79 90 79 79 0 90 -9 90 -80 0 -53 42 -100
90 -100 48 0 90 47 90 100 0 66 12 80 71 80 43 0 55 5 80 29 24 25 29 38 29
78 0 27 5 54 12 61 7 7 34 12 61 12 41 0 53 5 78 30 l30 30 -3 215 c-3 199 -4
216 -23 235 -26 26 -74 34 -105 18z"/>
<path d="M619 3681 c-20 -20 -29 -39 -29 -61 0 -48 47 -90 100 -90 66 0 80
-12 80 -71 0 -43 5 -55 29 -80 20 -20 39 -29 61 -29 22 0 41 9 61 29 29 29 29
30 29 151 0 121 0 122 -29 151 -29 29 -30 29 -151 29 -121 0 -122 0 -151 -29z"/>
<path d="M4939 3681 c-36 -37 -38 -79 -5 -118 34 -39 98 -39 132 0 33 39 31
81 -5 118 -20 20 -39 29 -61 29 -22 0 -41 -9 -61 -29z"/>
<path d="M259 3501 c-29 -29 -29 -30 -29 -151 0 -121 0 -122 29 -151 20 -20
39 -29 61 -29 48 0 90 47 90 100 0 66 12 80 71 80 43 0 55 5 80 29 20 20 29
39 29 61 0 22 -9 41 -29 61 -29 29 -30 29 -151 29 -121 0 -122 0 -151 -29z"/>
<path d="M6019 3501 c-20 -20 -29 -39 -29 -61 0 -43 47 -90 90 -90 43 0 90 47
90 90 0 43 -47 90 -90 90 -22 0 -41 -9 -61 -29z"/>
<path d="M5680 3157 c-31 -15 -50 -52 -50 -95 0 -58 -14 -72 -71 -72 -43 0
-55 -5 -80 -29 -24 -25 -29 -37 -29 -80 0 -59 -14 -71 -80 -71 -33 0 -48 -6
-71 -29 l-29 -29 0 -139 c0 -95 -4 -143 -12 -151 -7 -7 -34 -12 -61 -12 -40 0
-53 -5 -78 -29 -20 -20 -29 -39 -29 -61 0 -22 9 -41 29 -61 29 -29 30 -29 151
-29 121 0 122 0 151 29 23 23 29 38 29 71 0 66 12 80 71 80 43 0 55 5 80 29
24 25 29 38 29 78 0 27 5 54 12 61 8 8 56 12 151 12 l139 0 29 29 c20 20 29
39 29 61 0 22 -9 41 -29 61 -25 24 -38 29 -78 29 -27 0 -54 5 -61 12 -7 7 -12
40 -12 78 0 38 5 71 12 78 7 7 33 12 59 12 67 0 104 32 104 90 0 34 -6 47 -28
66 -26 22 -36 24 -140 24 -70 0 -121 -5 -137 -13z"/>
<path d="M619 2961 c-36 -37 -38 -79 -5 -118 34 -39 98 -39 132 0 33 39 31 81
-5 118 -20 20 -39 29 -61 29 -22 0 -41 -9 -61 -29z"/>
<path d="M1160 2962 c-40 -41 -40 -83 -1 -123 29 -29 30 -29 151 -29 121 0
122 0 151 29 36 37 38 79 5 118 -24 28 -26 28 -150 31 l-126 4 -30 -30z"/>
<path d="M1699 2961 c-23 -23 -29 -38 -29 -71 0 -66 -12 -80 -71 -80 -43 0
-55 -5 -80 -29 -39 -40 -39 -82 0 -122 29 -29 30 -29 151 -29 121 0 122 0 151
29 29 29 29 30 29 151 0 121 0 122 -29 151 -20 20 -39 29 -61 29 -22 0 -41 -9
-61 -29z"/>
<path d="M2239 2961 c-20 -20 -29 -39 -29 -61 0 -43 47 -90 90 -90 43 0 90 47
90 90 0 43 -47 90 -90 90 -22 0 -41 -9 -61 -29z"/>
<path d="M5144 2980 c-30 -12 -54 -49 -54 -83 0 -40 49 -87 90 -87 43 0 90 47
90 90 0 22 -9 41 -29 61 -30 29 -58 35 -97 19z"/>
<path d="M6019 2961 c-20 -20 -29 -39 -29 -61 0 -43 47 -90 90 -90 43 0 90 47
90 90 0 43 -47 90 -90 90 -22 0 -41 -9 -61 -29z"/>
<path d="M259 2781 c-39 -40 -39 -82 0 -122 20 -20 39 -29 61 -29 43 0 90 47
90 90 0 43 -47 90 -90 90 -22 0 -41 -9 -61 -29z"/>
<path d="M799 2781 c-20 -20 -29 -39 -29 -61 0 -43 47 -90 90 -90 43 0 90 47
90 90 0 43 -47 90 -90 90 -22 0 -41 -9 -61 -29z"/>
<path d="M2059 2781 c-20 -20 -29 -39 -29 -61 0 -43 47 -90 90 -90 43 0 90 47
90 90 0 43 -47 90 -90 90 -22 0 -41 -9 -61 -29z"/>
<path d="M644 2620 c-30 -12 -54 -49 -54 -83 0 -40 49 -87 90 -87 42 0 90 47
90 89 0 59 -71 105 -126 81z"/>
<path d="M979 2601 c-20 -20 -29 -39 -29 -61 0 -43 47 -90 90 -90 43 0 90 47
90 90 0 43 -47 90 -90 90 -22 0 -41 -9 -61 -29z"/>
<path d="M1364 2620 c-30 -12 -54 -49 -54 -83 0 -40 49 -87 90 -87 42 0 90 47
90 89 0 59 -71 105 -126 81z"/>
<path d="M2239 2601 l-29 -29 0 -212 0 -212 29 -29 c25 -24 37 -29 80 -29 59
0 71 -14 71 -80 0 -33 6 -48 29 -71 l29 -29 212 0 212 0 29 29 c20 20 29 39
29 61 0 22 -9 41 -29 61 -25 24 -38 29 -78 29 -27 0 -54 5 -61 12 -15 15 -16
122 -2 149 8 15 21 19 60 19 68 0 105 31 105 90 0 34 -6 47 -28 66 -26 22 -36
24 -148 24 -120 0 -121 0 -150 -29 -23 -24 -29 -38 -29 -75 0 -61 -17 -76 -90
-76 -87 0 -90 5 -90 166 l0 136 -29 29 c-20 20 -39 29 -61 29 -22 0 -41 -9
-61 -29z"/>
<path d="M6019 2601 c-20 -20 -29 -39 -29 -61 0 -43 47 -90 90 -90 43 0 90 47
90 90 0 43 -47 90 -90 90 -22 0 -41 -9 -61 -29z"/>
<path d="M259 2421 l-29 -29 0 -302 0 -302 29 -29 29 -29 392 0 392 0 29 29
c39 40 39 82 0 122 -24 23 -38 29 -75 29 -27 0 -51 6 -60 16 -10 9 -16 33 -16
60 0 37 -6 51 -29 75 -25 24 -38 29 -78 29 -27 0 -54 5 -61 12 -7 7 -12 34
-12 61 0 40 -5 53 -29 78 -40 39 -82 39 -122 0 l-29 -29 0 -136 c0 -163 -2
-166 -95 -166 -53 0 -66 3 -75 19 -15 28 -13 314 2 329 7 7 34 12 61 12 40 0
53 5 78 29 20 20 29 39 29 61 0 22 -9 41 -29 61 -29 29 -30 29 -151 29 -121 0
-122 0 -151 -29z"/>
<path d="M799 2421 c-20 -20 -29 -39 -29 -61 0 -22 9 -41 29 -61 37 -36 79
-38 118 -5 22 19 28 32 28 66 0 82 -88 119 -146 61z"/>
<path d="M1163 2426 c-22 -19 -28 -32 -28 -66 0 -82 88 -119 146 -61 20 20 29
39 29 61 0 22 -9 41 -29 61 -37 36 -79 38 -118 5z"/>
<path d="M1519 2421 c-24 -25 -29 -38 -29 -79 0 -28 -6 -54 -12 -60 -7 -5 -37
-12 -67 -14 -43 -4 -60 -11 -78 -32 -32 -38 -30 -81 6 -117 29 -29 30 -29 151
-29 121 0 122 0 151 29 23 23 29 38 29 71 0 66 12 80 71 80 43 0 55 5 80 29
20 20 29 39 29 61 0 22 -9 41 -29 61 -29 29 -30 29 -151 29 -121 0 -122 0
-151 -29z"/>
<path d="M4759 2421 c-24 -25 -29 -37 -29 -80 0 -59 -14 -71 -80 -71 -53 0
-100 -42 -100 -90 0 -22 9 -41 29 -61 l29 -29 212 0 212 0 29 29 c36 36 38 79
6 117 -18 21 -35 28 -78 32 -30 2 -60 9 -66 14 -7 6 -13 32 -13 60 0 41 -5 54
-29 79 -20 20 -39 29 -61 29 -22 0 -41 -9 -61 -29z"/>
<path d="M5684 2440 c-50 -20 -54 -39 -54 -263 l0 -209 29 -29 c25 -24 38 -29
78 -29 27 0 54 -5 61 -12 16 -16 16 -130 0 -150 -8 -10 -34 -18 -66 -21 -90
-7 -96 -20 -100 -190 -2 -78 -8 -147 -14 -154 -6 -8 -35 -13 -74 -13 -93 0
-94 2 -94 176 0 81 5 154 10 165 8 15 22 19 61 19 43 0 55 5 80 29 20 20 29
39 29 61 0 22 -9 41 -29 61 -25 24 -37 29 -80 29 -59 0 -71 14 -71 80 0 33 -6
48 -29 71 -29 29 -30 29 -151 29 -121 0 -122 0 -151 -29 -24 -25 -29 -38 -29
-78 0 -27 -5 -54 -12 -61 -9 -9 -76 -12 -241 -12 l-229 0 -29 -29 -29 -29 0
-132 c0 -72 -5 -140 -10 -151 -8 -15 -22 -19 -61 -19 -43 0 -55 -5 -80 -29
-24 -25 -29 -38 -29 -78 0 -27 -5 -54 -12 -61 -8 -8 -60 -12 -170 -12 -178 0
-178 0 -178 80 0 33 -6 48 -29 71 -29 29 -30 29 -151 29 -121 0 -122 0 -151
-29 -39 -40 -39 -82 0 -122 25 -24 37 -29 80 -29 59 0 71 -14 71 -80 0 -58 42
-100 100 -100 66 0 80 -12 80 -71 0 -43 5 -55 29 -80 23 -23 38 -29 71 -29 66
0 80 -13 80 -70 0 -37 6 -56 24 -77 24 -28 26 -28 150 -31 l126 -4 30 30 c25
26 30 38 30 81 0 39 4 53 19 61 29 15 493 14 509 -2 17 -17 17 -319 0 -336 -7
-7 -34 -12 -61 -12 -40 0 -53 -5 -78 -29 -39 -40 -39 -82 0 -122 25 -24 38
-29 78 -29 27 0 54 -5 61 -12 7 -7 12 -34 12 -61 0 -40 5 -53 29 -78 29 -29
30 -29 151 -29 121 0 122 0 151 29 23 23 29 38 29 71 0 85 -21 80 341 80 l321
0 29 29 29 29 0 212 0 212 -29 29 c-40 39 -82 39 -122 0 -23 -23 -29 -38 -29
-71 0 -66 -12 -80 -71 -80 -43 0 -55 -5 -80 -29 -24 -25 -29 -38 -29 -78 0
-27 -5 -54 -12 -61 -8 -8 -60 -12 -170 -12 -178 0 -178 0 -178 80 0 58 -42
100 -100 100 -69 0 -80 11 -80 85 0 78 13 95 76 95 63 0 104 40 104 100 0 80
0 80 178 80 110 0 162 -4 170 -12 7 -7 12 -33 12 -59 0 -60 29 -97 82 -106 32
-5 41 -1 68 25 l30 30 0 122 c0 121 0 122 -29 151 -25 24 -38 29 -78 29 -27 0
-54 5 -61 12 -7 7 -12 40 -12 78 0 38 5 71 12 78 7 7 34 12 61 12 40 0 53 5
78 29 24 25 29 37 29 80 0 59 14 71 80 71 53 0 100 42 100 90 0 22 -9 41 -29
61 -25 24 -37 29 -80 29 -60 0 -71 14 -71 90 0 76 11 90 71 90 43 0 55 5 80
29 20 20 29 39 29 61 0 22 -9 41 -29 61 l-29 29 -140 0 c-100 0 -142 4 -150
13 -5 6 -12 36 -14 65 -3 34 -12 61 -24 73 -23 22 -71 32 -100 19z m-424 -729
c6 -12 10 -111 10 -251 0 -140 -4 -239 -10 -251 -10 -18 -24 -19 -260 -19
-236 0 -250 1 -260 19 -6 12 -10 111 -10 251 0 140 4 239 10 251 10 18 24 19
260 19 236 0 250 -1 260 -19z"/>
<path d="M4939 1521 c-36 -37 -38 -79 -5 -118 19 -22 32 -28 66 -28 82 0 119
88 61 146 -20 20 -39 29 -61 29 -22 0 -41 -9 -61 -29z"/>
<path d="M1879 2241 c-23 -24 -29 -38 -29 -75 0 -27 -6 -51 -16 -60 -9 -10
-33 -16 -60 -16 -63 0 -104 -40 -104 -100 0 -79 -2 -80 -161 -80 l-141 0 -29
-29 c-36 -37 -38 -79 -5 -118 24 -28 24 -28 168 -31 163 -4 168 -6 168 -80 0
-55 41 -102 90 -102 22 0 41 9 61 29 l29 29 0 132 c0 72 5 140 10 151 8 15 22
19 61 19 43 0 55 5 80 29 29 29 29 30 29 151 0 121 0 122 -29 151 -20 20 -39
29 -61 29 -22 0 -41 -9 -61 -29z"/>
<path d="M2959 2241 c-20 -20 -29 -39 -29 -61 0 -43 47 -90 90 -90 43 0 90 47
90 90 0 43 -47 90 -90 90 -22 0 -41 -9 -61 -29z"/>
<path d="M3319 2241 c-20 -20 -29 -39 -29 -61 0 -22 9 -41 29 -61 l29 -29 139
0 c95 0 143 -4 151 -12 7 -7 12 -34 12 -61 0 -40 5 -53 29 -78 25 -24 37 -29
80 -29 59 0 71 -14 71 -80 0 -53 42 -100 90 -100 22 0 41 9 61 29 l29 29 0
132 c0 72 5 140 10 151 8 15 22 19 61 19 43 0 55 5 80 29 20 20 29 39 29 61 0
22 -9 41 -29 61 l-29 29 -392 0 -392 0 -29 -29z"/>
<path d="M1159 2061 c-20 -20 -29 -39 -29 -61 0 -43 47 -90 90 -90 43 0 90 47
90 90 0 22 -9 41 -29 61 -20 20 -39 29 -61 29 -22 0 -41 -9 -61 -29z"/>
<path d="M3139 2061 c-20 -20 -29 -39 -29 -61 0 -43 47 -90 90 -90 43 0 90 47
90 90 0 43 -47 90 -90 90 -22 0 -41 -9 -61 -29z"/>
<path d="M2239 1881 l-29 -29 0 -140 c0 -100 -4 -142 -12 -150 -7 -5 -37 -12
-67 -14 -43 -4 -60 -11 -78 -32 -51 -60 -6 -146 77 -146 66 0 80 -12 80 -71 0
-43 5 -55 29 -80 20 -20 39 -29 61 -29 50 0 90 47 90 104 0 63 17 76 95 76 76
0 85 -10 85 -90 0 -76 -11 -90 -71 -90 -43 0 -55 -5 -80 -29 -29 -29 -29 -30
-29 -151 0 -122 0 -122 30 -151 l30 -30 216 3 216 3 24 28 c24 28 24 30 24
252 0 263 -3 255 95 255 53 0 66 -3 75 -19 5 -11 10 -79 10 -151 l0 -132 29
-29 c40 -39 82 -39 122 0 l29 29 0 132 c0 72 5 140 10 151 8 15 22 19 61 19
43 0 55 5 80 29 23 24 29 38 29 73 0 60 15 75 79 81 44 3 60 10 78 31 21 25
23 36 23 146 0 111 -2 121 -24 147 -19 22 -32 28 -66 28 -58 0 -90 -37 -90
-104 0 -26 -5 -52 -12 -59 -7 -7 -34 -12 -61 -12 -40 0 -53 -5 -78 -29 -23
-24 -29 -38 -29 -75 0 -61 -17 -76 -90 -76 -73 0 -90 15 -90 76 0 87 -85 134
-146 81 -21 -18 -28 -35 -32 -78 -2 -30 -9 -60 -14 -66 -7 -8 -36 -13 -78 -13
-42 0 -71 5 -78 13 -5 6 -12 36 -14 66 -4 43 -11 60 -32 78 -61 53 -146 6
-146 -81 0 -61 -17 -76 -90 -76 -87 0 -90 5 -90 166 l0 136 -29 29 c-20 20
-39 29 -61 29 -22 0 -41 -9 -61 -29z"/>
<path d="M4043 1706 c-22 -19 -28 -32 -28 -66 0 -82 88 -119 146 -61 20 20 29
39 29 61 0 22 -9 41 -29 61 -37 36 -79 38 -118 5z"/>
<path d="M570 1589 c-171 -28 -301 -162 -329 -339 -14 -83 -14 -525 -1 -610
29 -181 158 -310 340 -339 84 -14 526 -14 610 0 182 29 311 158 340 339 16
102 13 551 -5 633 -36 171 -160 288 -335 316 -78 13 -542 12 -620 0z m655
-192 c55 -25 92 -62 112 -116 16 -40 18 -83 18 -336 0 -319 -5 -353 -63 -408
-60 -57 -83 -62 -374 -65 -173 -2 -287 1 -322 8 -72 15 -132 59 -159 118 -21
44 -22 65 -25 314 -4 298 3 354 48 417 60 82 99 90 445 88 245 -2 285 -4 320
-20z"/>
<path d="M703 1229 c-44 -13 -91 -63 -104 -111 -6 -25 -9 -104 -7 -198 3 -147
4 -159 28 -192 44 -66 66 -73 241 -76 178 -4 226 5 269 50 44 46 52 91 48 267
-3 140 -5 160 -25 191 -41 67 -68 75 -253 77 -91 1 -179 -2 -197 -8z"/>
<path d="M1699 1341 l-29 -29 0 -212 0 -212 30 -29 30 -30 215 3 c207 3 215 4
237 26 16 16 23 34 23 63 0 58 -37 89 -105 89 -57 0 -70 14 -70 80 0 33 -6 48
-29 71 -25 24 -37 29 -80 29 -59 0 -71 14 -71 80 0 53 -42 100 -90 100 -22 0
-41 -9 -61 -29z"/>
<path d="M3499 1161 c-24 -25 -29 -38 -29 -78 0 -27 -5 -54 -12 -61 -7 -7 -34
-12 -61 -12 -40 0 -53 -5 -78 -29 -29 -29 -29 -30 -29 -151 0 -121 0 -122 29
-151 20 -20 39 -29 61 -29 49 0 90 47 90 102 0 60 15 75 79 81 73 6 101 36
101 107 0 57 14 70 80 70 53 0 100 42 100 90 0 22 -9 41 -29 61 -29 29 -30 29
-151 29 -121 0 -122 0 -151 -29z"/>
<path d="M5484 987 c-23 -20 -29 -33 -29 -67 0 -34 6 -47 29 -67 28 -24 33
-24 152 -21 112 3 126 5 146 26 16 15 23 34 23 62 0 28 -7 47 -23 62 -20 21
-34 23 -146 26 -119 3 -124 3 -152 -21z"/>
<path d="M2264 820 c-34 -14 -54 -50 -54 -100 0 -58 -12 -70 -73 -70 -40 0
-53 -5 -78 -29 -36 -37 -38 -79 -5 -118 24 -28 26 -28 150 -31 l126 -4 30 30
30 30 0 122 c0 121 0 122 -29 151 -30 29 -58 35 -97 19z"/>
<path d="M2959 801 c-24 -25 -29 -38 -29 -78 0 -27 -5 -54 -12 -61 -7 -7 -34
-12 -61 -12 -40 0 -53 -5 -78 -29 -29 -29 -29 -30 -29 -150 0 -112 2 -122 24
-148 l24 -28 216 -3 216 -3 30 30 c30 29 30 29 30 151 0 121 0 122 -29 151
-23 23 -38 29 -71 29 -66 0 -80 12 -80 71 0 43 -5 55 -29 80 -40 39 -82 39
-122 0z"/>
<path d="M3679 801 c-24 -25 -29 -38 -29 -78 0 -27 -5 -54 -12 -61 -7 -7 -34
-12 -61 -12 -40 0 -53 -5 -78 -29 -36 -36 -38 -79 -6 -117 18 -21 35 -28 78
-32 30 -2 60 -9 67 -14 6 -6 12 -32 12 -59 0 -60 29 -97 82 -106 32 -5 41 -1
68 25 25 26 30 38 30 81 0 59 14 71 80 71 53 0 100 42 100 90 0 48 -47 90
-100 90 -66 0 -80 12 -80 71 0 43 -5 55 -29 80 -40 39 -82 39 -122 0z"/>
<path d="M4765 808 c-15 -14 -28 -38 -32 -60 -5 -32 -1 -41 25 -68 41 -40 83
-41 123 -1 20 20 29 39 29 61 0 42 -47 90 -89 90 -17 0 -41 -10 -56 -22z"/>
<path d="M1699 621 c-20 -20 -29 -39 -29 -61 0 -43 47 -90 90 -90 43 0 90 47
90 90 0 43 -47 90 -90 90 -22 0 -41 -9 -61 -29z"/>
<path d="M4219 621 c-20 -20 -29 -39 -29 -61 0 -43 47 -90 90 -90 43 0 90 47
90 90 0 43 -47 90 -90 90 -22 0 -41 -9 -61 -29z"/>
<path d="M4579 621 c-29 -29 -29 -30 -29 -151 0 -121 0 -122 29 -151 29 -29
30 -29 150 -29 110 0 122 2 146 22 15 14 28 38 32 60 5 32 1 41 -25 68 -26 25
-38 30 -81 30 -59 0 -71 14 -71 80 0 53 -42 100 -90 100 -22 0 -41 -9 -61 -29z"/>
</g>
</svg>
